# xmcd
#
# Track frame offsets:
#	150
#	19073
#	33117
#	47517
#	61890
#	73873
#	87415
#	100286
#	115162
#	134068
#	147579
#	164051
#	179611
#	195163
#	214232
#
# Disc length: 3043 seconds
#
# Revision: 1
# Processed by: cddbd v1.5.2PL0 Copyright (c) Steve Scherf et al.
# Submitted via: audiograbber 1.83.01
#
DISCID=e00be10f
DTITLE=MM6158 - Music Maestro (MM)
DYEAR=1900
DGENRE=Country
TTITLE0=Brooks and Dunn - I Am That Man (MM)
TTITLE1=Blackhawk - Big Guitar (MM)
TTITLE2=Mindy McCready	 - Guys Do It All The Time (MM)
TTITLE3=Tim McGraw - She Never Lets It Go To Her Heart (MM)
TTITLE4=Bryan White - So Much Pretending (MM)
TTITLE5=Bogguss, Suzy - Give Me Some Wheels (MM)
TTITLE6=John Anderson, - My Kind Of Crazy (MM)
TTITLE7=The Mavericks - Missing You (MM)
TTITLE8=Doug Supernaw - You Still Got Me (MM)
TTITLE9=Joe Diffie - Whole Lotta Gone (MM)
TTITLE10=Billy Dean - That Girl's Been Spyin' On Me (MM)
TTITLE11=George Ducas - Every Time She Passes By (MM)
TTITLE12=Aaron Tippin - Everything I Own (MM)
TTITLE13=Great Plains - Dancin' With The Wind (MM)
TTITLE14=Mark Wills - Jacob's Ladder (MM)
EXTD=
EXTT0=
EXTT1=
EXTT2=
EXTT3=
EXTT4=
EXTT5=
EXTT6=
EXTT7=
EXTT8=
EXTT9=
EXTT10=
EXTT11=
EXTT12=
EXTT13=
EXTT14=
PLAYORDER=
